<?xml version="1.0" standalone="no"?><!DOCTYPE svg PUBLIC "-//W3C//DTD SVG 1.1//EN" "http://www.w3.org/Graphics/SVG/1.1/DTD/svg11.dtd"><svg t="1734622757355" class="icon" viewBox="0 0 1024 1024" version="1.1" xmlns="http://www.w3.org/2000/svg" p-id="1990" xmlns:xlink="http://www.w3.org/1999/xlink" width="200" height="200"><path d="M877.824 172.48l-735.712 0c-46.848 0-84.832 40.672-84.832 90.88l0 497.312c0 50.176 37.984 90.88 84.832 90.88l735.712 0c46.848 0 84.832-40.672 84.832-90.88L962.656 263.328C962.656 213.152 924.672 172.48 877.824 172.48zM538.048 665.792c0 9.76-7.904 17.664-17.632 17.664l-304.832 0c-9.76 0-17.664-7.904-17.664-17.664L197.92 620.16c0-66.272 96.608-79.872 96.608-79.872-23.264-20.8-39.968-51.008-39.968-84.672 0-62.624 50.752-113.408 113.408-113.408 62.624 0 113.44 50.784 113.44 113.408 0 33.664-16.736 63.84-39.968 84.672 0 0 96.576 14.24 96.576 79.872L538.016 665.792zM792.768 639.328c0 7.904-6.976 14.336-15.552 14.336L638.528 653.664c-8.576 0-15.552-6.432-15.552-14.336L622.976 611.52c0-7.936 6.976-14.336 15.552-14.336l138.688 0c8.576 0 15.552 6.4 15.552 14.336L792.768 639.328zM792.768 525.952c0 7.872-6.976 14.336-15.552 14.336L638.528 540.288c-8.576 0-15.552-6.464-15.552-14.336l0-27.872c0-7.904 6.976-14.336 15.552-14.336l138.688 0c8.576 0 15.552 6.432 15.552 14.336L792.768 525.952zM792.768 412.704c0 7.936-6.976 14.336-15.552 14.336L638.528 427.04c-8.576 0-15.552-6.4-15.552-14.336l0-27.808c0-7.904 6.976-14.336 15.552-14.336l138.688 0c8.576 0 15.552 6.432 15.552 14.336L792.768 412.704z" fill="#1296db" p-id="1991"></path></svg>